<svg id="visual" viewBox="0 0 1920 1080" width="1920" height="1080" xmlns="http://www.w3.org/2000/svg" xmlns:xlink="http://www.w3.org/1999/xlink" version="1.1"><rect width="1920" height="1080" fill="#001829"></rect><g><g transform="translate(812 562)"><path d="M0 -202.4L175.3 -101.2L175.3 101.2L0 202.4L-175.3 101.2L-175.3 -101.2Z" fill="none" stroke="#172f3a" stroke-width="1"></path></g><g transform="translate(962 133)"><path d="M0 -105L90.9 -52.5L90.9 52.5L0 105L-90.9 52.5L-90.9 -52.5Z" fill="none" stroke="#172f3a" stroke-width="1"></path></g><g transform="translate(698 982)"><path d="M0 -44L38.1 -22L38.1 22L0 44L-38.1 22L-38.1 -22Z" stroke="#172f3a" fill="none" stroke-width="1"></path></g><g transform="translate(1586 377)"><path d="M0 -179L155 -89.5L155 89.5L0 179L-155 89.5L-155 -89.5Z" stroke="#172f3a" fill="none" stroke-width="1"></path></g><g transform="translate(290 493)"><path d="M0 -56L48.5 -28L48.5 28L0 56L-48.5 28L-48.5 -28Z" stroke="#172f3a" fill="none" stroke-width="1"></path></g><g transform="translate(62 97)"><path d="M0 -68L58.9 -34L58.9 34L0 68L-58.9 34L-58.9 -34Z" stroke="#172f3a" fill="none" stroke-width="1"></path></g><g transform="translate(1323 783)"><path d="M0 -141L122.1 -70.5L122.1 70.5L0 141L-122.1 70.5L-122.1 -70.5Z" stroke="#172f3a" fill="none" stroke-width="1"></path></g><g transform="translate(1890 1059)"><path d="M0 -35L30.3 -17.5L30.3 17.5L0 35L-30.3 17.5L-30.3 -17.5Z" stroke="#172f3a" fill="none" stroke-width="1"></path></g><g transform="translate(63 1061)"><path d="M0 -135L116.9 -67.5L116.9 67.5L0 135L-116.9 67.5L-116.9 -67.5Z" stroke="#172f3a" fill="none" stroke-width="1"></path></g><g transform="translate(525 5)"><path d="M0 -153L132.5 -76.5L132.5 76.5L0 153L-132.5 76.5L-132.5 -76.5Z" stroke="#172f3a" fill="none" stroke-width="1"></path></g><g transform="translate(1372 3)"><path d="M0 -110L95.3 -55L95.3 55L0 110L-95.3 55L-95.3 -55Z" stroke="#172f3a" fill="none" stroke-width="1"></path></g><g transform="translate(1843 25)"><path d="M0 -98L84.9 -49L84.9 49L0 98L-84.9 49L-84.9 -49Z" stroke="#172f3a" fill="none" stroke-width="1"></path></g><g transform="translate(1917 612)"><path d="M0 -73L63.2 -36.5L63.2 36.5L0 73L-63.2 36.5L-63.2 -36.5Z" stroke="#172f3a" fill="none" stroke-width="1"></path></g></g></svg>